<svg width="122" height="45" viewBox="0 0 122 45" fill="none" xmlns="http://www.w3.org/2000/svg">
<path d="M16.5041 26.5094C18.0263 22.9235 6.68142 20.6374 6.43058 17.5076C6.18544 14.0243 12.0517 14.6571 10.5638 11.2137C16.8177 15.6434 13.3572 16.5555 12.0118 17.5418C8.80217 19.8621 20.643 21.3044 16.5041 26.5094Z" fill="white"/>
<path d="M0 0C6.36224 14.2409 -3.39206 13.4314 2.12075 26.0191C-0.142523 12.6903 15.478 11.3221 0 0Z" fill="white"/>
<path d="M35.6479 34.5534C36.4404 34.3539 37.0618 33.989 37.5065 33.4588C37.9511 32.9286 38.1735 32.273 38.1735 31.492C38.1735 30.386 37.8257 29.5822 37.1302 29.0691C36.4347 28.5617 35.2945 28.3052 33.721 28.3052H28.6415V29.8216H30.2948V38.9488L27.8833 38.9545C27.3873 38.9545 27.2448 38.6752 27.2448 38.1792V34.3482C27.2448 32.6265 26.3953 31.6744 24.5596 31.6744C23.3909 31.6744 22.4047 32.273 21.7662 33.2935C21.3785 32.2046 20.4949 31.6744 19.4003 31.6744C18.0948 31.6744 17.1712 32.273 16.5384 33.3961H16.5042V31.9253H12.4052V33.4018H13.1122C13.6081 33.4018 13.7507 33.6812 13.7507 34.1771V38.0823C13.7507 38.6125 13.6423 38.8576 13.1122 38.8576H12.371C11.7724 38.8576 11.5216 38.5783 11.2023 37.4837L8.26636 28.3451H4.77168L1.8357 37.478C1.48224 38.6011 1.2371 38.8519 0.632804 38.8519H0V40.471H5.15935V38.8519H4.66336C4.20159 38.8519 3.56879 38.8177 3.56879 38.4984C3.56879 38.2533 3.6372 37.9683 3.81393 37.3355L4.02486 36.5943H7.59365L7.98131 37.8941C8.04972 38.1735 8.04972 38.3502 8.04972 38.5612C8.04972 38.7721 7.62785 38.8405 7.09766 38.8405H6.56748V40.4596H12.371H13.0095H17.6045V38.8405H17.3194C16.8235 38.8405 16.6809 38.6638 16.6809 38.4186V34.9468C16.6809 34.103 17.0002 33.2935 17.9522 33.2935C18.9442 33.2935 19.0468 33.9605 19.0468 34.8784V38.0766C19.0468 38.641 18.9043 38.8519 18.4083 38.8519H18.1632V40.471H22.8265V38.8519H22.5814C22.0512 38.8519 21.9429 38.7835 21.9429 38.43V34.6674C21.9429 33.8579 22.2622 33.2935 23.2142 33.2935C24.0294 33.2935 24.3088 34.2455 24.3088 34.8784V38.0766C24.3088 38.6068 24.1663 38.8519 23.6703 38.8519H23.4308V40.471H27.6723H33.7039V38.9545H32.1476V34.8042H33.8579L36.5601 40.471H39.3022V38.9545H37.8086L35.6479 34.5534ZM4.56075 35.0494L5.79785 31.11H5.83206L7.10337 35.0494H4.56075ZM32.1419 33.2764V29.8216H34.0346C34.8099 29.8216 35.3743 29.9527 35.7335 30.215C36.0926 30.4772 36.2693 30.8934 36.2693 31.4578C36.2693 32.1191 36.0812 32.5866 35.6936 32.8602C35.3059 33.1339 34.7244 33.2707 33.9263 33.2707L32.1419 33.2764Z" fill="white"/>
<path d="M47.8308 34.046C47.4432 33.3105 46.9244 32.7462 46.2574 32.3528C45.5903 31.9594 44.8093 31.7599 43.9086 31.7599C43.0876 31.7599 42.3351 31.9537 41.651 32.3357C40.9669 32.7176 40.431 33.2535 40.0376 33.9376C39.6443 34.6218 39.4504 35.3857 39.4504 36.2351C39.4504 37.0903 39.65 37.8599 40.049 38.544C40.4424 39.2281 41.0011 39.7583 41.7194 40.1403C42.432 40.5222 43.2473 40.7161 44.1708 40.7161C45.0602 40.7161 45.8754 40.5336 46.6336 40.1631C47.3918 39.7925 47.9961 39.2509 48.4636 38.5269L46.9871 37.8656C46.6621 38.3445 46.2574 38.6979 45.7785 38.9317C45.2996 39.1654 44.7751 39.2794 44.2107 39.2794C43.4411 39.2794 42.7912 39.0457 42.261 38.5725C41.7308 38.0993 41.4173 37.4608 41.3089 36.6513H48.4579C48.4237 35.6479 48.2128 34.7814 47.8308 34.046ZM41.3603 35.4541C41.4971 34.7643 41.7992 34.1999 42.2781 33.778C42.757 33.3562 43.3043 33.1452 43.9371 33.1452C44.6041 33.1452 45.1856 33.3562 45.6987 33.778C46.2061 34.1999 46.5424 34.7586 46.6963 35.4541H41.3603Z" fill="white"/>
<path d="M53.7942 39.1882C53.0189 39.1882 52.3861 38.9089 51.9129 38.3445C51.4397 37.7801 51.2003 37.0561 51.2003 36.1667C51.2003 35.6479 51.3086 35.1633 51.5195 34.7244C51.7305 34.2854 52.0269 33.9319 52.4146 33.6754C52.8022 33.4189 53.2355 33.2877 53.7258 33.2877C54.2959 33.2877 54.7919 33.4474 55.2251 33.778C55.6584 34.103 55.9092 34.5762 55.9719 35.1976H57.4656V31.9879H55.9719V32.5979C55.3049 32.0392 54.5068 31.7599 53.5776 31.7599C52.7908 31.7599 52.0839 31.948 51.4454 32.33C50.8069 32.7119 50.3052 33.2364 49.9404 33.9148C49.5755 34.5933 49.3931 35.3458 49.3931 36.1781C49.3931 37.0219 49.5755 37.7915 49.9347 38.487C50.2938 39.1768 50.8069 39.7298 51.4625 40.1232C52.1238 40.5222 52.8763 40.7218 53.7258 40.7218C55.6242 40.7218 56.9639 39.878 57.7506 38.1848L56.3539 37.5235C55.8522 38.6352 55.0028 39.1882 53.7942 39.1882Z" fill="white"/>
<path d="M65.2073 32.3699C64.5232 31.9594 63.765 31.7599 62.9269 31.7599C62.0604 31.7599 61.2851 31.9537 60.6067 32.3357C59.9225 32.7176 59.3924 33.2478 59.0104 33.9262C58.6284 34.6047 58.4403 35.3743 58.4403 36.2351C58.4403 37.0561 58.6284 37.8086 59.0104 38.4984C59.3924 39.1825 59.9283 39.7241 60.6124 40.1175C61.2965 40.5165 62.0718 40.7161 62.9269 40.7161C63.7536 40.7161 64.5118 40.5165 65.1902 40.1175C65.8743 39.7184 66.4102 39.1768 66.8036 38.4984C67.1969 37.8143 67.3965 37.0618 67.3965 36.2351C67.3965 35.4256 67.2026 34.6845 66.815 34.0004C66.4216 33.3162 65.8914 32.7747 65.2073 32.3699ZM65.27 37.6661C65.0363 38.0993 64.7113 38.4528 64.3009 38.7093C63.8847 38.9659 63.4286 39.097 62.9326 39.097C62.4367 39.097 61.9749 38.9659 61.553 38.7093C61.1311 38.4528 60.8005 38.0993 60.5611 37.6604C60.3273 37.2214 60.2019 36.7482 60.2019 36.2408C60.2019 35.7334 60.3216 35.266 60.5611 34.8213C60.8005 34.3766 61.1254 34.0289 61.5416 33.7666C61.9578 33.5044 62.4139 33.379 62.9098 33.379C63.4172 33.379 63.879 33.5101 64.2952 33.778C64.7113 34.046 65.0363 34.3994 65.2643 34.8327C65.4981 35.266 65.6121 35.7391 65.6121 36.2465C65.6235 36.7539 65.5038 37.2328 65.27 37.6661Z" fill="white"/>
<path d="M91.4885 31.9879H88.4784V33.4816H89.8067V38.983H87.0475V34.7643C87.0475 33.7723 86.865 33.0426 86.5002 32.5751C86.1353 32.1076 85.5709 31.8739 84.807 31.8739C83.8891 31.8739 82.9086 32.2559 81.8653 33.0141V31.9936H75.5544V33.2193C75.0869 32.7632 74.608 32.4326 74.1235 32.2103C73.6332 31.9879 73.1087 31.8796 72.55 31.8796C71.7633 31.8796 71.0506 32.0848 70.4064 32.4896C69.7622 32.9001 69.2549 33.4474 68.8843 34.1372C68.5137 34.827 68.3313 35.5738 68.3313 36.3719C68.3313 37.1587 68.508 37.8827 68.8615 38.5383C69.2149 39.1939 69.7052 39.7241 70.338 40.1232C70.9651 40.5222 71.6777 40.7218 72.4645 40.7218C73.0289 40.7218 73.5933 40.5963 74.1577 40.3512C74.722 40.1061 75.1895 39.764 75.5601 39.3364V40.1289C75.5601 40.9897 75.3206 41.6795 74.8475 42.204C74.3686 42.7285 73.713 42.9907 72.8692 42.9907C72.4018 42.9907 71.9742 42.9223 71.5808 42.7741C71.1875 42.6316 70.7998 42.4206 70.4064 42.1356L69.329 43.3271C70.2924 44.091 71.4554 44.473 72.8179 44.473C74.2546 44.473 75.3491 44.0739 76.096 43.2644C76.8428 42.4605 77.2191 41.3203 77.2191 39.8381V33.4759H80.212V38.9773H78.7127V40.4595H83.3362V38.9773H81.871V34.4678C82.8003 33.7381 83.6383 33.3732 84.3851 33.3732C84.7329 33.3732 84.9894 33.4873 85.1434 33.721C85.2973 33.9547 85.3714 34.331 85.3714 34.8669V40.4652H92.7883V38.983H91.4885V31.9879ZM75.218 37.763C74.9843 38.2076 74.6479 38.5668 74.2204 38.829C73.7928 39.0913 73.3139 39.2224 72.7837 39.2224C72.2592 39.2224 71.7918 39.0913 71.387 38.8347C70.9765 38.5782 70.663 38.2247 70.4406 37.7858C70.224 37.3468 70.11 36.8622 70.11 36.332C70.11 35.8132 70.2297 35.3344 70.4577 34.8897C70.6915 34.445 71.0164 34.0859 71.4269 33.8236C71.8431 33.5614 72.3049 33.4303 72.8122 33.4303C73.331 33.4303 73.8042 33.5671 74.2204 33.8407C74.6422 34.1144 74.9729 34.4792 75.2123 34.9239C75.4518 35.3686 75.5715 35.8361 75.5715 36.3206C75.5715 36.8337 75.4518 37.3183 75.218 37.763Z" fill="white"/>
<path d="M95.8269 29.1774L94.1451 30.7052V31.9879H93.0334V33.4816H94.1451V38.2761C94.1451 39.1312 94.2991 39.7355 94.6069 40.089C94.9148 40.4424 95.4221 40.6191 96.1234 40.6191C96.4426 40.6191 96.8588 40.545 97.3833 40.3968V38.8861C97.0868 38.9887 96.7904 39.04 96.4939 39.04C96.2488 39.04 96.0777 38.9716 95.9751 38.8348C95.8782 38.6979 95.8269 38.4015 95.8269 37.934V33.4873H97.3833V31.9822H95.8269V29.1774Z" fill="white"/>
<path d="M101.328 31.9879H98.3182V33.4759H99.6465V38.983H98.3182V40.4652H102.622V38.983H101.323V31.9879H101.328Z" fill="white"/>
<path d="M109.703 32.3699C109.019 31.9594 108.261 31.7599 107.423 31.7599C106.556 31.7599 105.781 31.9537 105.103 32.3357C104.419 32.7176 103.888 33.2478 103.512 33.9262C103.13 34.6047 102.936 35.3743 102.936 36.2351C102.936 37.0561 103.13 37.8086 103.512 38.4984C103.894 39.1825 104.424 39.7241 105.114 40.1175C105.798 40.5165 106.568 40.7161 107.423 40.7161C108.25 40.7161 109.008 40.5165 109.686 40.1175C110.365 39.7184 110.906 39.1768 111.3 38.4984C111.699 37.8143 111.892 37.0618 111.892 36.2351C111.892 35.4256 111.699 34.6845 111.311 34.0004C110.923 33.3162 110.387 32.7747 109.703 32.3699ZM109.766 37.6661C109.532 38.0993 109.207 38.4528 108.791 38.7093C108.375 38.9659 107.919 39.097 107.417 39.097C106.921 39.097 106.459 38.9659 106.038 38.7093C105.616 38.4528 105.285 38.0993 105.046 37.6604C104.806 37.2214 104.686 36.7482 104.686 36.2408C104.686 35.7334 104.806 35.266 105.046 34.8213C105.285 34.3766 105.61 34.0289 106.026 33.7666C106.442 33.5044 106.898 33.379 107.4 33.379C107.907 33.379 108.369 33.5101 108.785 33.778C109.202 34.046 109.527 34.3994 109.76 34.8327C109.988 35.266 110.108 35.7391 110.108 36.2465C110.119 36.7539 110 37.2328 109.766 37.6661Z" fill="white"/>
<path d="M120.928 38.983V34.7643C120.928 33.7723 120.746 33.0426 120.381 32.5751C120.016 32.1076 119.452 31.8739 118.688 31.8739C117.77 31.8739 116.789 32.2559 115.746 33.0141V31.9936H112.588V33.4873H114.087V38.9887H112.588V40.4709H117.211V38.9887H115.746V34.4735C116.675 33.7438 117.513 33.3789 118.26 33.3789C118.608 33.3789 118.865 33.493 119.019 33.7267C119.172 33.9604 119.247 34.3367 119.247 34.8726V40.4709H122V38.9887L120.928 38.983Z" fill="white"/>
<path d="M90.5535 28.2425C90.6276 28.1512 90.696 28.0486 90.7815 27.9631C91.2205 27.507 91.9274 27.6325 92.1839 28.2082C92.3949 28.6814 92.2923 29.1147 91.9787 29.5081C91.7678 29.7703 91.4884 29.947 91.2319 30.1523C90.9981 30.3404 90.7701 30.5399 90.5364 30.7338C90.2114 30.3518 89.7553 30.0839 89.3563 29.7475C89.0997 29.5252 88.9002 29.2572 88.8318 28.9152C88.7406 28.4363 88.9287 27.8548 89.5444 27.7009C89.8409 27.6267 90.0917 27.7294 90.2969 27.9403C90.3938 28.0372 90.468 28.1455 90.5535 28.2425Z" fill="white"/>
<path d="M100.394 24.3772C100.502 24.2404 100.599 24.0979 100.724 23.9725C101.363 23.3055 102.395 23.4879 102.777 24.3316C103.09 25.0214 102.936 25.6542 102.48 26.23C102.178 26.612 101.762 26.8685 101.386 27.1764C101.043 27.4557 100.713 27.7408 100.365 28.0315C99.8919 27.4728 99.2192 27.0852 98.6434 26.5835C98.2671 26.2585 97.9764 25.8709 97.8794 25.3692C97.7426 24.6737 98.022 23.8185 98.9227 23.5962C99.356 23.4936 99.7208 23.6418 100.023 23.944C100.16 24.0751 100.274 24.229 100.394 24.3772Z" fill="white"/>
</svg>
