<svg width="214" height="78" viewBox="0 0 214 78" fill="none" xmlns="http://www.w3.org/2000/svg">
<path d="M43.9921 54.0293C43.098 52.3329 41.9059 51.0491 40.3929 50.155C38.857 49.261 37.0689 48.8025 35.0057 48.8025C33.1259 48.8025 31.4065 49.2381 29.8247 50.1321C28.2659 51.0032 27.0279 52.2412 26.1339 53.8C25.2398 55.3589 24.7813 57.1241 24.7813 59.0727C24.7813 61.0442 25.2398 62.7864 26.1568 64.3682C27.0509 65.9271 28.3346 67.1421 29.9852 68.0361C31.6128 68.9073 33.4926 69.3657 35.6017 69.3657C37.642 69.3657 39.4989 68.9531 41.2411 68.1049C42.9834 67.2567 44.3588 66.0188 45.4363 64.3453L42.0435 62.8323C41.3099 63.9326 40.37 64.735 39.2696 65.2852C38.1692 65.8125 36.9772 66.0875 35.6705 66.0875C33.9053 66.0875 32.4152 65.5603 31.2002 64.4599C29.9852 63.3825 29.2745 61.9153 29.0224 60.0584H45.4134C45.3446 57.6972 44.8632 55.7028 43.9921 54.0293ZM29.1599 57.2387C29.4809 55.6569 30.1686 54.3731 31.269 53.3874C32.3693 52.4246 33.6302 51.9431 35.0744 51.9431C36.6104 51.9431 37.94 52.4246 39.1091 53.3874C40.2783 54.3502 41.0348 55.634 41.4016 57.2387H29.1599Z" fill="black"/>
<path d="M57.6551 65.8124C55.867 65.8124 54.4227 65.1705 53.3453 63.8868C52.2678 62.603 51.7177 60.9295 51.7177 58.8892C51.7177 57.6972 51.9698 56.5968 52.4512 55.5881C52.9326 54.5794 53.6204 53.7771 54.5144 53.181C55.4085 52.585 56.3942 52.287 57.5175 52.287C58.8242 52.287 59.9705 52.6538 60.9562 53.4103C61.942 54.1668 62.5151 55.2442 62.6756 56.6656H66.0913V49.3068H62.6756V50.7052C61.1396 49.4214 59.3057 48.7795 57.1966 48.7795C55.3856 48.7795 53.7809 49.2151 52.3137 50.0862C50.8465 50.9574 49.7003 52.1724 48.8521 53.7083C48.0268 55.2672 47.5912 56.9865 47.5912 58.8892C47.5912 60.8149 48.0039 62.5801 48.8292 64.1848C49.6544 65.7666 50.8236 67.0274 52.3366 67.9444C53.8496 68.8614 55.569 69.3199 57.5175 69.3199C61.8732 69.3199 64.9451 67.3942 66.7332 63.4971L63.5238 61.984C62.3775 64.5287 60.429 65.8124 57.6551 65.8124Z" fill="black"/>
<path d="M83.8348 50.1779C82.2759 49.238 80.5337 48.7795 78.608 48.7795C76.6136 48.7795 74.8484 49.2151 73.2895 50.1092C71.7307 50.9803 70.5157 52.1953 69.6216 53.7542C68.7505 55.313 68.3149 57.0782 68.3149 59.0497C68.3149 60.9295 68.7505 62.6488 69.6216 64.2306C70.4927 65.7895 71.7307 67.0503 73.2895 67.9444C74.8484 68.8614 76.6365 69.3199 78.5851 69.3199C80.4878 69.3199 82.2071 68.8614 83.766 67.9444C85.3249 67.0274 86.5628 65.7895 87.4569 64.2306C88.3509 62.6718 88.8094 60.9295 88.8094 59.0497C88.8094 57.1928 88.3738 55.4964 87.4798 53.9375C86.6086 52.3558 85.3936 51.0949 83.8348 50.1779ZM83.9723 62.3279C83.4451 63.3137 82.6886 64.1389 81.7487 64.7121C80.7858 65.3081 79.7542 65.6061 78.608 65.6061C77.4618 65.6061 76.4073 65.3081 75.4444 64.7121C74.4816 64.116 73.7251 63.3137 73.1749 62.305C72.6476 61.2963 72.3496 60.2189 72.3496 59.0497C72.3496 57.8806 72.6247 56.826 73.1749 55.7944C73.7251 54.7858 74.4587 53.9834 75.4215 53.3874C76.3843 52.7913 77.4159 52.4933 78.5622 52.4933C79.7313 52.4933 80.7858 52.7913 81.7487 53.4103C82.7115 54.0292 83.4451 54.8316 83.9723 55.8174C84.4996 56.8031 84.7747 57.9035 84.7747 59.0497C84.7747 60.2189 84.4996 61.3192 83.9723 62.3279Z" fill="black"/>
<path d="M144.08 49.3068H137.18V52.7226H140.229V65.331H133.902V55.6569C133.902 53.3874 133.489 51.7139 132.641 50.6365C131.816 49.559 130.509 49.0317 128.767 49.0317C126.658 49.0317 124.411 49.9029 122.027 51.6451V49.3068H107.562V52.1265C106.484 51.072 105.384 50.3155 104.283 49.8112C103.16 49.3068 101.968 49.0547 100.684 49.0547C98.8733 49.0547 97.2457 49.5361 95.7785 50.4531C94.3113 51.393 93.1422 52.6538 92.294 54.2356C91.4458 55.8174 91.0331 57.5367 91.0331 59.3478C91.0331 61.1588 91.4458 62.8094 92.2481 64.3224C93.0505 65.8354 94.1738 67.0504 95.641 67.9444C97.0852 68.8614 98.7128 69.3199 100.524 69.3199C101.808 69.3199 103.114 69.0219 104.398 68.4717C105.682 67.8986 106.759 67.1192 107.608 66.1563V67.9674C107.608 69.9389 107.057 71.5207 105.98 72.7356C104.88 73.9277 103.389 74.5467 101.441 74.5467C100.363 74.5467 99.3777 74.3862 98.4836 74.0423C97.5895 73.7214 96.6955 73.24 95.8014 72.5752L93.3256 75.3032C95.5263 77.0454 98.2085 77.9395 101.326 77.9395C104.627 77.9395 107.126 77.0225 108.845 75.1656C110.565 73.3317 111.413 70.7183 111.413 67.3025V52.7226H118.267V65.331H114.829V68.7239H125.42V65.331H122.05V54.9921C124.182 53.3186 126.108 52.4933 127.804 52.4933C128.606 52.4933 129.179 52.7455 129.546 53.2957C129.913 53.8459 130.074 54.6941 130.074 55.932V68.7697H147.083V65.331H144.103V49.3068H144.08ZM106.782 62.5343C106.255 63.5429 105.476 64.3682 104.49 64.9872C103.504 65.5832 102.404 65.8812 101.189 65.8812C99.9966 65.8812 98.9192 65.5832 97.9793 64.9872C97.0394 64.3911 96.3287 63.5888 95.8014 62.5801C95.2971 61.5714 95.0449 60.4711 95.0449 59.2561C95.0449 58.064 95.32 56.9636 95.8473 55.9549C96.3746 54.9463 97.1311 54.121 98.071 53.502C99.0338 52.906 100.088 52.608 101.257 52.608C102.45 52.608 103.527 52.9289 104.49 53.5479C105.453 54.1668 106.209 55.015 106.759 56.0237C107.31 57.0324 107.585 58.1098 107.585 59.2331C107.585 60.4023 107.31 61.5256 106.782 62.5343Z" fill="black"/>
<path d="M154.03 42.8647L150.178 46.3722V49.3065H147.634V52.7223H150.178V63.7031C150.178 65.6746 150.522 67.0501 151.233 67.8524C151.943 68.6548 153.113 69.0674 154.717 69.0674C155.451 69.0674 156.414 68.907 157.606 68.5631V65.1015C156.918 65.3307 156.253 65.4454 155.566 65.4454C154.992 65.4454 154.603 65.2849 154.373 64.9639C154.144 64.643 154.03 63.9782 154.03 62.9007V52.6993H157.606V49.2836H154.03V42.8647Z" fill="black"/>
<path d="M166.638 49.3066H159.738V52.7224H162.787V65.3538H159.738V68.7466H169.595V65.3309H166.615L166.638 49.3066Z" fill="black"/>
<path d="M185.826 50.1779C184.267 49.238 182.525 48.7795 180.599 48.7795C178.605 48.7795 176.839 49.2151 175.281 50.1092C173.722 50.9803 172.507 52.1953 171.636 53.7542C170.764 55.313 170.306 57.0782 170.306 59.0497C170.306 60.9295 170.741 62.6488 171.636 64.2306C172.507 65.7895 173.722 67.0503 175.303 67.9444C176.862 68.8614 178.627 69.3199 180.599 69.3199C182.502 69.3199 184.244 68.8614 185.78 67.9444C187.339 67.0274 188.577 65.7895 189.471 64.2306C190.388 62.6718 190.823 60.9295 190.823 59.0497C190.823 57.1928 190.388 55.4964 189.494 53.9375C188.623 52.3558 187.408 51.0949 185.826 50.1779ZM185.963 62.3279C185.436 63.3137 184.68 64.1389 183.74 64.7121C182.777 65.3081 181.745 65.6061 180.599 65.6061C179.453 65.6061 178.398 65.3081 177.435 64.7121C176.473 64.116 175.716 63.3137 175.166 62.305C174.616 61.2963 174.341 60.2189 174.341 59.0497C174.341 57.8806 174.616 56.826 175.166 55.7944C175.716 54.7858 176.45 53.9834 177.412 53.3874C178.375 52.7913 179.407 52.4933 180.553 52.4933C181.722 52.4933 182.777 52.7913 183.74 53.4103C184.702 54.0292 185.436 54.8316 185.963 55.8174C186.491 56.8031 186.766 57.9035 186.766 59.0497C186.789 60.2189 186.514 61.3192 185.963 62.3279Z" fill="black"/>
<path d="M211.57 65.331V55.6569C211.57 53.3874 211.157 51.7139 210.309 50.6365C209.484 49.559 208.177 49.0317 206.435 49.0317C204.326 49.0317 202.079 49.9029 199.695 51.6451V49.3068H192.451V52.7226H195.89V65.331H192.451V68.7239H203.042V65.331H199.672V54.9692C201.804 53.2957 203.73 52.4704 205.426 52.4704C206.229 52.4704 206.802 52.7226 207.169 53.2728C207.512 53.8 207.696 54.6712 207.696 55.9091V68.7468H214V65.354L211.57 65.331Z" fill="black"/>
<path d="M141.925 38.4174C142.086 38.2111 142.246 37.9818 142.453 37.7755C143.461 36.721 145.089 37.019 145.662 38.3486C146.144 39.4261 145.914 40.4348 145.181 41.3288C144.699 41.9249 144.057 42.3375 143.461 42.796C142.934 43.2316 142.407 43.69 141.857 44.1256C141.123 43.2545 140.069 42.6355 139.152 41.8561C138.556 41.3517 138.097 40.7328 137.96 39.9534C137.753 38.853 138.189 37.5234 139.587 37.1795C140.275 37.019 140.848 37.2483 141.307 37.7297C141.559 37.9589 141.742 38.1882 141.925 38.4174Z" fill="black"/>
<path d="M141.925 2.58663C142.269 2.17399 142.567 1.69258 142.957 1.30286C144.974 -0.783265 148.207 -0.210153 149.376 2.42616C150.339 4.58106 149.88 6.57549 148.436 8.3636C147.473 9.55567 146.189 10.381 145.02 11.3209C143.943 12.192 142.911 13.086 141.834 13.9801C140.344 12.2378 138.257 10.9999 136.446 9.46398C135.277 8.4553 134.36 7.21738 134.039 5.65851C133.627 3.45776 134.475 0.798524 137.295 0.11079C138.647 -0.233077 139.793 0.248337 140.733 1.21116C141.192 1.64673 141.536 2.15107 141.925 2.58663Z" fill="#CE0063"/>
<path d="M164.483 27.2765C164.735 26.9556 164.965 26.6346 165.24 26.3596C166.707 24.8236 169.068 25.2592 169.939 27.1848C170.65 28.7666 170.306 30.2109 169.251 31.5405C168.564 32.4116 167.601 33.0077 166.753 33.7183C165.973 34.3602 165.217 35.0021 164.414 35.6898C163.337 34.406 161.778 33.512 160.471 32.3658C159.6 31.6093 158.935 30.7381 158.729 29.5919C158.408 27.9872 159.05 26.0386 161.113 25.5343C162.099 25.305 162.947 25.6489 163.635 26.3366C163.956 26.5659 164.208 26.9327 164.483 27.2765Z" fill="#0086CE"/>
<path d="M21.0217 65.2622L16.0701 55.1755C17.8811 54.717 19.3024 53.8917 20.334 52.6767C21.3427 51.4617 21.87 49.9487 21.87 48.1606C21.87 45.616 21.0676 43.782 19.4858 42.6129C17.8811 41.4437 15.2677 40.8706 11.6686 40.8706H0V44.3551H3.78254V65.2852H0.0687734V68.7697H11.5998V65.2852H8.04649V55.7715H11.9666L18.1562 68.7697H24.4375V65.2852H21.0217V65.2622ZM8.02357 52.2641V44.3551H12.3563C14.1444 44.3551 15.4282 44.6531 16.2535 45.2492C17.0787 45.8452 17.4914 46.808 17.4914 48.0918C17.4914 49.6048 17.0558 50.6823 16.1618 51.3012C15.2677 51.9202 13.9381 52.2411 12.1041 52.2411L8.02357 52.2641Z" fill="black"/>
</svg>
