<svg width="214" height="79" viewBox="0 0 214 79" fill="none" xmlns="http://www.w3.org/2000/svg">
<path d="M28.95 46.4999C31.62 40.2099 11.72 36.1999 11.28 30.7099C10.85 24.5999 21.14 25.7099 18.53 19.6699C29.5 27.4399 23.43 29.0399 21.07 30.7699C15.44 34.8399 36.21 37.3699 28.95 46.4999Z" fill="#B10933"/>
<path d="M0 0C11.16 24.98 -5.95 23.56 3.72 45.64C-0.25 22.26 27.15 19.86 0 0Z" fill="#F5A100"/>
<path d="M62.53 60.6099C63.92 60.2599 65.01 59.6199 65.79 58.6899C66.57 57.7599 66.96 56.6099 66.96 55.2399C66.96 53.2999 66.35 51.8899 65.13 50.9899C63.91 50.0999 61.91 49.6499 59.15 49.6499H50.24V52.3099H53.14V68.3199L48.91 68.3299C48.04 68.3299 47.79 67.8399 47.79 66.9699V60.2499C47.79 57.2299 46.3 55.5599 43.08 55.5599C41.03 55.5599 39.3 56.6099 38.18 58.3999C37.5 56.4899 35.95 55.5599 34.03 55.5599C31.74 55.5599 30.12 56.6099 29.01 58.5799H28.95V55.9999H21.76V58.5899H23C23.87 58.5899 24.12 59.0799 24.12 59.9499V66.7999C24.12 67.7299 23.93 68.1599 23 68.1599H21.7C20.65 68.1599 20.21 67.6699 19.65 65.7499L14.5 49.7199H8.37L3.22 65.7399C2.6 67.7099 2.17 68.1499 1.11 68.1499H0V70.9899H9.05V68.1499H8.18C7.37 68.1499 6.26 68.0899 6.26 67.5299C6.26 67.0999 6.38 66.5999 6.69 65.4899L7.06 64.1899H13.32L14 66.4699C14.12 66.9599 14.12 67.2699 14.12 67.6399C14.12 68.0099 13.38 68.1299 12.45 68.1299H11.52V70.9699H21.7H22.82H30.88V68.1299H30.38C29.51 68.1299 29.26 67.8199 29.26 67.3899V61.2999C29.26 59.8199 29.82 58.3999 31.49 58.3999C33.23 58.3999 33.41 59.5699 33.41 61.1799V66.7899C33.41 67.7799 33.16 68.1499 32.29 68.1499H31.86V70.9899H40.04V68.1499H39.61C38.68 68.1499 38.49 68.0299 38.49 67.4099V60.8099C38.49 59.3899 39.05 58.3999 40.72 58.3999C42.15 58.3999 42.64 60.0699 42.64 61.1799V66.7899C42.64 67.7199 42.39 68.1499 41.52 68.1499H41.1V70.9899H48.54H59.12V68.3299H56.39V61.0499H59.39L64.13 70.9899H68.94V68.3299H66.32L62.53 60.6099ZM8 61.4799L10.17 54.5699H10.23L12.46 61.4799H8ZM56.38 58.3699V52.3099H59.7C61.06 52.3099 62.05 52.5399 62.68 52.9999C63.31 53.4599 63.62 54.1899 63.62 55.1799C63.62 56.3399 63.29 57.1599 62.61 57.6399C61.93 58.1199 60.91 58.3599 59.51 58.3599L56.38 58.3699Z" fill="black"/>
<path d="M83.9 59.72C83.22 58.43 82.31 57.44 81.14 56.75C79.97 56.06 78.6 55.71 77.02 55.71C75.58 55.71 74.26 56.05 73.06 56.72C71.86 57.39 70.92 58.33 70.23 59.53C69.54 60.73 69.2 62.07 69.2 63.56C69.2 65.06 69.55 66.41 70.25 67.61C70.94 68.81 71.92 69.74 73.18 70.41C74.43 71.08 75.86 71.42 77.48 71.42C79.04 71.42 80.47 71.1 81.8 70.45C83.13 69.8 84.19 68.85 85.01 67.58L82.42 66.42C81.85 67.26 81.14 67.88 80.3 68.29C79.46 68.7 78.54 68.9 77.55 68.9C76.2 68.9 75.06 68.49 74.13 67.66C73.2 66.83 72.65 65.71 72.46 64.29H85C84.94 62.53 84.57 61.01 83.9 59.72ZM72.55 62.19C72.79 60.98 73.32 59.99 74.16 59.25C75 58.51 75.96 58.14 77.07 58.14C78.24 58.14 79.26 58.51 80.16 59.25C81.05 59.99 81.64 60.97 81.91 62.19H72.55Z" fill="black"/>
<path d="M94.36 68.74C93 68.74 91.89 68.25 91.06 67.26C90.23 66.27 89.81 65 89.81 63.44C89.81 62.53 90 61.68 90.37 60.91C90.74 60.14 91.26 59.52 91.94 59.07C92.62 58.62 93.38 58.39 94.24 58.39C95.24 58.39 96.11 58.67 96.87 59.25C97.63 59.82 98.07 60.65 98.18 61.74H100.8V56.11H98.18V57.18C97.01 56.2 95.61 55.71 93.98 55.71C92.6 55.71 91.36 56.04 90.24 56.71C89.12 57.38 88.24 58.3 87.6 59.49C86.96 60.68 86.64 62 86.64 63.46C86.64 64.94 86.96 66.29 87.59 67.51C88.22 68.72 89.12 69.69 90.27 70.38C91.43 71.08 92.75 71.43 94.24 71.43C97.57 71.43 99.92 69.95 101.3 66.98L98.85 65.82C97.97 67.77 96.48 68.74 94.36 68.74Z" fill="black"/>
<path d="M114.38 56.78C113.18 56.06 111.85 55.71 110.38 55.71C108.86 55.71 107.5 56.05 106.31 56.72C105.11 57.39 104.18 58.32 103.51 59.51C102.84 60.7 102.51 62.05 102.51 63.56C102.51 65 102.84 66.32 103.51 67.53C104.18 68.73 105.12 69.68 106.32 70.37C107.52 71.07 108.88 71.42 110.38 71.42C111.83 71.42 113.16 71.07 114.35 70.37C115.55 69.67 116.49 68.72 117.18 67.53C117.87 66.33 118.22 65.01 118.22 63.56C118.22 62.14 117.88 60.84 117.2 59.64C116.51 58.44 115.58 57.49 114.38 56.78ZM114.49 66.07C114.08 66.83 113.51 67.45 112.79 67.9C112.06 68.35 111.26 68.58 110.39 68.58C109.52 68.58 108.71 68.35 107.97 67.9C107.23 67.45 106.65 66.83 106.23 66.06C105.82 65.29 105.6 64.46 105.6 63.57C105.6 62.68 105.81 61.86 106.23 61.08C106.65 60.3 107.22 59.69 107.95 59.23C108.68 58.77 109.48 58.55 110.35 58.55C111.24 58.55 112.05 58.78 112.78 59.25C113.51 59.72 114.08 60.34 114.48 61.1C114.89 61.86 115.09 62.69 115.09 63.58C115.11 64.47 114.9 65.31 114.49 66.07Z" fill="black"/>
<path d="M160.48 56.1099H155.2V58.7299H157.53V68.3799H152.69V60.9799C152.69 59.2399 152.37 57.9599 151.73 57.1399C151.09 56.3199 150.1 55.9099 148.76 55.9099C147.15 55.9099 145.43 56.5799 143.6 57.9099V56.1199H132.53V58.2699C131.71 57.4699 130.87 56.8899 130.02 56.4999C129.16 56.1099 128.24 55.9199 127.26 55.9199C125.88 55.9199 124.63 56.2799 123.5 56.9899C122.37 57.7099 121.48 58.6699 120.83 59.8799C120.18 61.0899 119.86 62.3999 119.86 63.7999C119.86 65.1799 120.17 66.4499 120.79 67.5999C121.41 68.7499 122.27 69.6799 123.38 70.3799C124.48 71.0799 125.73 71.4299 127.11 71.4299C128.1 71.4299 129.09 71.2099 130.08 70.7799C131.07 70.3499 131.89 69.7499 132.54 68.9999V70.3899C132.54 71.8999 132.12 73.1099 131.29 74.0299C130.45 74.9499 129.3 75.4099 127.82 75.4099C127 75.4099 126.25 75.2899 125.56 75.0299C124.87 74.7799 124.19 74.4099 123.5 73.9099L121.61 75.9999C123.3 77.3399 125.34 78.0099 127.73 78.0099C130.25 78.0099 132.17 77.3099 133.48 75.8899C134.79 74.4799 135.45 72.4799 135.45 69.8799V58.7199H140.7V68.3699H138.07V70.9699H146.18V68.3699H143.61V60.4599C145.24 59.1799 146.71 58.5399 148.02 58.5399C148.63 58.5399 149.08 58.7399 149.35 59.1499C149.62 59.5599 149.75 60.2199 149.75 61.1599V70.9799H162.76V68.3799H160.48V56.1099ZM131.94 66.2399C131.53 67.0199 130.94 67.6499 130.19 68.1099C129.44 68.5699 128.6 68.7999 127.67 68.7999C126.75 68.7999 125.93 68.5699 125.22 68.1199C124.5 67.6699 123.95 67.0499 123.56 66.2799C123.18 65.5099 122.98 64.6599 122.98 63.7299C122.98 62.8199 123.19 61.9799 123.59 61.1999C124 60.4199 124.57 59.7899 125.29 59.3299C126.02 58.8699 126.83 58.6399 127.72 58.6399C128.63 58.6399 129.46 58.8799 130.19 59.3599C130.93 59.8399 131.51 60.4799 131.93 61.2599C132.35 62.0399 132.56 62.8599 132.56 63.7099C132.56 64.6099 132.35 65.4599 131.94 66.2399Z" fill="black"/>
<path d="M168.09 51.1799L165.14 53.8599V56.1099H163.19V58.7299H165.14V67.1399C165.14 68.6399 165.41 69.6999 165.95 70.3199C166.49 70.9399 167.38 71.2499 168.61 71.2499C169.17 71.2499 169.9 71.1199 170.82 70.8599V68.2099C170.3 68.3899 169.78 68.4799 169.26 68.4799C168.83 68.4799 168.53 68.3599 168.35 68.1199C168.18 67.8799 168.09 67.3599 168.09 66.5399V58.7399H170.82V56.0999H168.09V51.1799Z" fill="black"/>
<path d="M177.74 56.1099H172.46V58.7199H174.79V68.3799H172.46V70.9799H180.01V68.3799H177.73V56.1099H177.74Z" fill="black"/>
<path d="M192.43 56.78C191.23 56.06 189.9 55.71 188.43 55.71C186.91 55.71 185.55 56.05 184.36 56.72C183.16 57.39 182.23 58.32 181.57 59.51C180.9 60.7 180.56 62.05 180.56 63.56C180.56 65 180.9 66.32 181.57 67.53C182.24 68.73 183.17 69.68 184.38 70.37C185.58 71.07 186.93 71.42 188.43 71.42C189.88 71.42 191.21 71.07 192.4 70.37C193.59 69.67 194.54 68.72 195.23 67.53C195.93 66.33 196.27 65.01 196.27 63.56C196.27 62.14 195.93 60.84 195.25 59.64C194.57 58.44 193.63 57.49 192.43 56.78ZM192.54 66.07C192.13 66.83 191.56 67.45 190.83 67.9C190.1 68.35 189.3 68.58 188.42 68.58C187.55 68.58 186.74 68.35 186 67.9C185.26 67.45 184.68 66.83 184.26 66.06C183.84 65.29 183.63 64.46 183.63 63.57C183.63 62.68 183.84 61.86 184.26 61.08C184.68 60.3 185.25 59.69 185.98 59.23C186.71 58.77 187.51 58.55 188.39 58.55C189.28 58.55 190.09 58.78 190.82 59.25C191.55 59.72 192.12 60.34 192.53 61.1C192.93 61.86 193.14 62.69 193.14 63.58C193.16 64.47 192.95 65.31 192.54 66.07Z" fill="black"/>
<path d="M212.12 68.3799V60.9799C212.12 59.2399 211.8 57.9599 211.16 57.1399C210.52 56.3199 209.53 55.9099 208.19 55.9099C206.58 55.9099 204.86 56.5799 203.03 57.9099V56.1199H197.49V58.7399H200.12V68.3899H197.49V70.9899H205.6V68.3899H203.03V60.4699C204.66 59.1899 206.13 58.5499 207.44 58.5499C208.05 58.5499 208.5 58.7499 208.77 59.1599C209.04 59.5699 209.17 60.2299 209.17 61.1699V70.9899H214V68.3899L212.12 68.3799Z" fill="black"/>
<path d="M158.84 49.5399C158.97 49.3799 159.09 49.1999 159.24 49.0499C160.01 48.2499 161.25 48.4699 161.7 49.4799C162.07 50.3099 161.89 51.0699 161.34 51.7599C160.97 52.2199 160.48 52.5299 160.03 52.8899C159.62 53.2199 159.22 53.5699 158.81 53.9099C158.24 53.2399 157.44 52.7699 156.74 52.1799C156.29 51.7899 155.94 51.3199 155.82 50.7199C155.66 49.8799 155.99 48.8599 157.07 48.5899C157.59 48.4599 158.03 48.6399 158.39 49.0099C158.56 49.1799 158.69 49.3699 158.84 49.5399Z" fill="#B10933"/>
<path d="M176.1 42.76C176.29 42.52 176.46 42.27 176.68 42.05C177.8 40.88 179.61 41.2 180.28 42.68C180.83 43.89 180.56 45 179.76 46.01C179.23 46.68 178.5 47.13 177.84 47.67C177.24 48.16 176.66 48.66 176.05 49.17C175.22 48.19 174.04 47.51 173.03 46.63C172.37 46.06 171.86 45.38 171.69 44.5C171.45 43.28 171.94 41.78 173.52 41.39C174.28 41.21 174.92 41.47 175.45 42C175.69 42.23 175.89 42.5 176.1 42.76Z" fill="#F5A100"/>
</svg>
