<svg width="46" height="30" viewBox="0 0 46 30" fill="none" xmlns="http://www.w3.org/2000/svg">
<path d="M7.63343 15.046C7.45709 15.1807 7.27292 15.3169 7.08091 15.4548C6.89512 15.5832 6.69203 15.707 6.47165 15.8262C6.24965 15.9376 6.00171 16.0422 5.72783 16.1398C5.46179 16.2358 5.16427 16.318 4.83527 16.3862C3.78561 16.6039 2.92612 16.537 2.25682 16.1856C1.59534 15.8326 1.15089 15.1077 0.923448 14.0111C0.791858 13.3766 0.766307 12.7609 0.846796 12.1642C0.92566 11.5596 1.11396 11.0099 1.41169 10.5151C1.70779 10.0125 2.11266 9.58129 2.6263 9.22149C3.13994 8.86169 3.76101 8.60624 4.4895 8.45516C4.83417 8.38368 5.15238 8.3422 5.44412 8.33071C5.7437 8.3176 6.0152 8.32666 6.25861 8.35788C6.50823 8.37964 6.73206 8.41492 6.93009 8.46373C7.13596 8.5109 7.32144 8.55822 7.48652 8.60569L7.51677 10.8789L5.40178 11.3175C5.39337 11.2376 5.38008 11.1341 5.36192 11.0072C5.35159 10.8786 5.33735 10.7508 5.31919 10.6239C5.29941 10.4891 5.28043 10.3582 5.26227 10.2312C5.24412 10.1043 5.2261 9.99772 5.20823 9.91155C5.19523 9.84889 5.1767 9.7792 5.15262 9.70249C5.12691 9.61795 5.09027 9.53976 5.04269 9.46793C4.99511 9.39609 4.9312 9.34398 4.85095 9.31161C4.77692 9.26977 4.68506 9.26022 4.5754 9.28297C4.37173 9.3252 4.2016 9.45036 4.06501 9.65843C3.93463 9.85705 3.83209 10.1112 3.75741 10.4208C3.6811 10.7226 3.62859 11.0603 3.59986 11.4339C3.57113 11.8075 3.5597 12.1857 3.56555 12.5685C3.57761 12.9418 3.60061 13.3088 3.63455 13.6694C3.67633 14.0284 3.72483 14.3411 3.78006 14.6074C3.79631 14.6857 3.82053 14.7829 3.85274 14.8987C3.88494 15.0146 3.93199 15.1233 3.9939 15.2249C4.05582 15.3264 4.13406 15.4082 4.22864 15.4703C4.33105 15.5308 4.45276 15.5464 4.59376 15.5171C4.83659 15.4668 5.04072 15.2692 5.20615 14.9244C5.36996 14.5718 5.45762 13.9899 5.46912 13.1786L7.64286 12.7278L7.63343 15.046Z" fill="#ce0063"/>
<path d="M12.1349 6.86957C12.8085 6.72986 13.3708 6.70312 13.8217 6.78935C14.2805 6.87395 14.6686 7.07124 14.9862 7.38121C15.1932 7.59155 15.3715 7.84054 15.521 8.12817C15.6705 8.4158 15.7867 8.75936 15.8696 9.15886C15.9411 9.50353 15.9812 9.85469 15.99 10.2124C15.9988 10.57 15.9778 10.9216 15.9269 11.2671C15.8822 11.6032 15.8069 11.9293 15.7009 12.2454C15.6011 12.5521 15.4752 12.8315 15.3232 13.0836C15.0379 13.5594 14.6695 13.93 14.2179 14.1952C13.7726 14.451 13.1974 14.652 12.4924 14.7982C11.8109 14.9395 11.2479 14.9827 10.8035 14.9278C10.3591 14.8729 9.98302 14.714 9.6752 14.451C9.45738 14.2674 9.26262 14.0178 9.09093 13.7021C8.92708 13.3847 8.79235 12.9715 8.68675 12.4623C8.50643 11.5928 8.49835 10.7856 8.66251 10.0408C8.83288 9.28647 9.16255 8.65027 9.65153 8.13217C9.94584 7.81786 10.2923 7.55809 10.6909 7.35286C11.0896 7.14764 11.5709 6.98654 12.1349 6.86957ZM12.2278 13.9952C12.408 13.9578 12.5602 13.8445 12.6843 13.6554C12.8147 13.4568 12.9189 13.2105 12.9968 12.9165C13.0809 12.6131 13.1421 12.2777 13.1803 11.9103C13.2263 11.5413 13.2503 11.1646 13.2523 10.7801C13.2543 10.3957 13.2375 10.0193 13.2019 9.65084C13.1726 9.27293 13.127 8.93514 13.0653 8.63747C12.9808 8.23014 12.88 7.96099 12.763 7.83003C12.6522 7.68961 12.5184 7.63564 12.3618 7.66813C12.1816 7.7055 12.0255 7.81957 11.8935 8.01035C11.7615 8.20114 11.6487 8.44513 11.5551 8.74233C11.4677 9.03007 11.401 9.35846 11.355 9.72749C11.3152 10.0871 11.2896 10.456 11.2781 10.8342C11.2745 11.2107 11.2858 11.5801 11.3119 11.9424C11.3458 12.303 11.3936 12.6322 11.4554 12.9298C11.548 13.3763 11.6592 13.676 11.7889 13.8288C11.9248 13.9722 12.0711 14.0277 12.2278 13.9952Z" fill="#ce0063"/>
<path d="M25.7806 11.9443L23.1721 12.4852L23.2003 7.18507L21.4683 12.8386L19.8703 13.17L18.2523 8.02742L18.2136 13.5136L17.1561 13.7329L17.1949 5.94271L20.1912 5.32131L21.4278 9.45226L22.8114 4.77789L25.8312 4.15162L25.7806 11.9443Z" fill="#ce0063"/>
<path d="M29.8431 11.1017L27.3051 11.6281L27.344 3.83788L29.8937 3.30908L29.8431 11.1017Z" fill="#ce0063"/>
<path d="M37.6354 9.48568L34.8859 10.0559L32.4631 4.93315L32.4301 10.5652L31.3726 10.7845L31.4115 2.99431L34.2197 2.4119L36.5866 7.61977L36.6167 1.91479L37.6977 1.6906L37.6354 9.48568Z" fill="#ce0063"/>
<path d="M42.6339 4.89496L45.6772 4.26382L45.7024 7.81265L44.3159 8.10019L43.9367 7.3945L43.8897 7.40424C43.7347 7.68148 43.5333 7.93159 43.2854 8.15458C43.0454 8.37594 42.7021 8.53292 42.2556 8.62552C41.9109 8.697 41.5667 8.71121 41.2228 8.66815C40.885 8.61563 40.5657 8.49395 40.2647 8.3031C39.9698 8.1028 39.7066 7.81833 39.4749 7.4497C39.2432 7.08107 39.0689 6.61475 38.9519 6.05075C38.8252 5.43975 38.799 4.84059 38.8733 4.25327C38.9475 3.66595 39.1296 3.12572 39.4195 2.63257C39.7078 2.1316 40.1088 1.70121 40.6224 1.3414C41.136 0.981603 41.7688 0.723723 42.5208 0.567764C43.1005 0.447547 43.6196 0.409345 44.078 0.453161C44.5365 0.496976 44.9747 0.561331 45.3926 0.646227L45.4189 3.01832L43.4331 3.43015C43.4231 3.34236 43.4137 3.23809 43.405 3.11734C43.3963 2.99659 43.3829 2.87274 43.3647 2.74578C43.3449 2.61099 43.326 2.48011 43.3078 2.35316C43.2896 2.2262 43.2708 2.11572 43.2513 2.02172C43.2383 1.95905 43.2198 1.88937 43.1957 1.81266C43.17 1.72812 43.1334 1.64993 43.0858 1.57809C43.0382 1.50626 42.9782 1.45334 42.9058 1.41934C42.8318 1.3775 42.736 1.36876 42.6185 1.39313C42.4148 1.43537 42.2447 1.56053 42.1081 1.7686C41.9777 1.96722 41.8752 2.22133 41.8005 2.53095C41.7242 2.83273 41.6717 3.17044 41.643 3.54405C41.6221 3.91605 41.6145 4.29344 41.6204 4.67622C41.6325 5.04955 41.6555 5.41653 41.6894 5.77715C41.7295 6.12831 41.7764 6.43315 41.83 6.69165C41.8463 6.76998 41.8705 6.86708 41.9027 6.98296C41.9349 7.09883 41.9828 7.21146 42.0463 7.32084C42.1161 7.42075 42.199 7.50568 42.2952 7.5756C42.3976 7.63606 42.5272 7.65004 42.6838 7.61755C42.9423 7.56394 43.1638 7.37096 43.3481 7.0386C43.5325 6.70624 43.6191 6.19806 43.6079 5.51407L42.621 5.71876L42.6339 4.89496Z" fill="#ce0063"/>
<path d="M4.62134 23.0607C4.62047 22.9383 4.59891 22.7753 4.55667 22.5717C4.53231 22.4542 4.50092 22.3422 4.46251 22.2358C4.42247 22.1215 4.37394 22.0254 4.3169 21.9473C4.25824 21.8615 4.18487 21.8031 4.09679 21.7724C4.00708 21.7338 3.89956 21.7275 3.77423 21.7535C3.63323 21.7827 3.51048 21.8409 3.40597 21.9279C3.30147 22.0149 3.21278 22.1191 3.1399 22.2405C3.07323 22.3523 3.02628 22.4805 2.99907 22.6251C2.97806 22.7601 2.98218 22.8982 3.01142 23.0392C3.05366 23.2429 3.13707 23.389 3.26164 23.4775C3.39406 23.5644 3.55374 23.6253 3.74069 23.66C3.92765 23.6948 4.13566 23.7129 4.36474 23.7144C4.59382 23.7159 4.83236 23.7237 5.08036 23.7376C5.28756 23.7518 5.49802 23.7817 5.71172 23.8273C5.92542 23.8728 6.12212 23.9546 6.30182 24.0725C6.48773 24.181 6.65205 24.343 6.79479 24.5586C6.9359 24.7662 7.0422 25.0424 7.11368 25.3871C7.21603 25.8806 7.20421 26.316 7.07824 26.6935C6.95226 27.0709 6.73887 27.4011 6.43807 27.6841C6.13727 27.9671 5.7577 28.2051 5.29936 28.3982C4.84885 28.5897 4.34552 28.7431 3.78935 28.8585C3.22536 28.9754 2.75588 29.036 2.38093 29.0403C2.01218 29.035 1.71704 29.0105 1.4955 28.9665C1.23155 28.9151 1.02702 28.8349 0.881901 28.7261L0.947552 27.0335L3.01555 26.6046C3.02233 26.6768 3.03481 26.7763 3.05297 26.9033C3.0695 27.0224 3.08508 27.1172 3.0997 27.1877C3.1192 27.2817 3.15125 27.3772 3.19587 27.4741C3.24049 27.5711 3.29524 27.6578 3.36011 27.7342C3.43281 27.809 3.52185 27.8641 3.62722 27.8994C3.73259 27.9347 3.85578 27.9378 3.99678 27.9085C4.15344 27.8761 4.28322 27.8124 4.38609 27.7175C4.49681 27.621 4.58077 27.5137 4.63798 27.3957C4.70141 27.2681 4.7397 27.1376 4.75288 27.0042C4.77226 26.8612 4.76895 26.7271 4.74296 26.6018C4.70722 26.4295 4.63408 26.2935 4.52355 26.1938C4.42085 26.0926 4.29087 26.0174 4.13363 25.9683C3.97476 25.9114 3.79564 25.875 3.59626 25.8592C3.4031 25.8339 3.20211 25.8102 2.99328 25.7881C2.79391 25.7723 2.58035 25.7471 2.3526 25.7127C2.13269 25.6766 1.92195 25.6059 1.72037 25.5006C1.5188 25.3954 1.33733 25.2492 1.17596 25.0621C1.02081 24.8655 0.908305 24.5988 0.838449 24.2619C0.734477 23.7606 0.772895 23.3155 0.953705 22.9267C1.14072 22.5284 1.40422 22.1837 1.74419 21.8926C2.09199 21.5999 2.48804 21.3625 2.93233 21.1805C3.375 20.9907 3.80392 20.8527 4.21909 20.7666C4.76742 20.6529 5.25123 20.622 5.67051 20.6739C6.096 20.7164 6.42845 20.8027 6.66786 20.9328L6.57183 22.6562L4.62134 23.0607Z" fill="#ce0063"/>
<path d="M11.4796 19.2608C12.1532 19.1211 12.7155 19.0944 13.1664 19.1806C13.6252 19.2652 14.0133 19.4625 14.3309 19.7725C14.5379 19.9828 14.7162 20.2318 14.8657 20.5194C15.0152 20.8071 15.1314 21.1506 15.2143 21.5501C15.2857 21.8948 15.3259 22.246 15.3347 22.6036C15.3435 22.9613 15.3225 23.3129 15.2716 23.6584C15.2269 23.9945 15.1516 24.3206 15.0455 24.6367C14.9457 24.9434 14.8198 25.2227 14.6679 25.4749C14.3826 25.9507 14.0141 26.3212 13.5626 26.5865C13.1172 26.8422 12.5421 27.0432 11.8371 27.1894C11.1556 27.3308 10.5926 27.374 10.1482 27.3191C9.70381 27.2642 9.32769 27.1053 9.01988 26.8423C8.80206 26.6587 8.6073 26.409 8.43561 26.0933C8.27176 25.776 8.13703 25.3627 8.03144 24.8536C7.85111 23.9841 7.84303 23.1769 8.00719 22.432C8.17756 21.6777 8.50723 21.0415 8.99621 20.5234C9.29052 20.2091 9.63698 19.9494 10.0356 19.7441C10.4342 19.5389 10.9156 19.3778 11.4796 19.2608ZM11.5725 26.3864C11.7527 26.3491 11.9048 26.2358 12.029 26.0466C12.1594 25.848 12.2635 25.6017 12.3415 25.3078C12.4256 25.0044 12.4868 24.669 12.525 24.3016C12.571 23.9325 12.595 23.5558 12.597 23.1714C12.5989 22.787 12.5821 22.4106 12.5466 22.0421C12.5172 21.6642 12.4717 21.3264 12.41 21.0287C12.3255 20.6214 12.2247 20.3523 12.1077 20.2213C11.9969 20.0809 11.8631 20.0269 11.7064 20.0594C11.5263 20.0968 11.3702 20.2108 11.2382 20.4016C11.1062 20.5924 10.9934 20.8364 10.8998 21.1336C10.8124 21.4213 10.7457 21.7497 10.6997 22.1188C10.6599 22.4783 10.6342 22.8472 10.6228 23.2254C10.6192 23.602 10.6304 23.9714 10.6566 24.3337C10.6905 24.6943 10.7383 25.0234 10.8001 25.3211C10.8927 25.7676 11.0038 26.0673 11.1336 26.2201C11.2695 26.3635 11.4158 26.4189 11.5725 26.3864Z" fill="#ce0063"/>
<path d="M19.7582 17.5439C20.4319 17.4042 20.9942 17.3774 21.4451 17.4637C21.9038 17.5483 22.292 17.7456 22.6095 18.0555C22.8166 18.2659 22.9949 18.5149 23.1444 18.8025C23.2939 19.0901 23.4101 19.4337 23.4929 19.8332C23.5644 20.1779 23.6046 20.529 23.6134 20.8867C23.6222 21.2443 23.6012 21.5959 23.5503 21.9415C23.5056 22.2776 23.4302 22.6036 23.3242 22.9198C23.2244 23.2264 23.0985 23.5058 22.9466 23.7579C22.6612 24.2338 22.2928 24.6043 21.8413 24.8695C21.3959 25.1253 20.8208 25.3263 20.1158 25.4725C19.4343 25.6138 18.8713 25.6571 18.4269 25.6022C17.9825 25.5473 17.6064 25.3883 17.2986 25.1254C17.0807 24.9418 16.886 24.6921 16.7143 24.3764C16.5504 24.0591 16.4157 23.6458 16.3101 23.1366C16.1298 22.2671 16.1217 21.46 16.2859 20.7151C16.4562 19.9608 16.7859 19.3246 17.2749 18.8065C17.5692 18.4922 17.9157 18.2324 18.3143 18.0272C18.7129 17.822 19.1942 17.6609 19.7582 17.5439ZM19.8512 24.6695C20.0313 24.6321 20.1835 24.5189 20.3077 24.3297C20.4381 24.1311 20.5422 23.8848 20.6202 23.5909C20.7043 23.2875 20.7655 22.952 20.8036 22.5846C20.8497 22.2156 20.8737 21.8389 20.8756 21.4545C20.8776 21.0701 20.8608 20.6936 20.8253 20.3252C20.7959 19.9473 20.7504 19.6095 20.6886 19.3118C20.6042 18.9045 20.5034 18.6353 20.3864 18.5044C20.2755 18.3639 20.1418 18.31 19.9851 18.3425C19.805 18.3798 19.6489 18.4939 19.5169 18.6847C19.3849 18.8755 19.2721 19.1195 19.1785 19.4167C19.0911 19.7044 19.0244 20.0328 18.9783 20.4018C18.9385 20.7614 18.9129 21.1303 18.9015 21.5085C18.8979 21.8851 18.9091 22.2545 18.9352 22.6167C18.9692 22.9773 19.017 23.3065 19.0787 23.6042C19.1713 24.0507 19.2825 24.3503 19.4122 24.5032C19.5482 24.6465 19.6945 24.702 19.8512 24.6695Z" fill="#ce0063"/>
<path d="M31.0422 23.1084L28.2927 23.6786L25.8699 18.5559L25.8369 24.1879L24.7794 24.4072L24.8183 16.617L27.6265 16.0346L29.9934 21.2425L30.0235 15.5375L31.1045 15.3133L31.0422 23.1084Z" fill="#ce0063"/>
</svg>
