<svg width="122" height="45" viewBox="0 0 122 45" fill="none" xmlns="http://www.w3.org/2000/svg">
<path d="M25.0796 30.8017C24.5699 29.8345 23.8903 29.1027 23.0277 28.593C22.1521 28.0833 21.1327 27.8219 19.9565 27.8219C18.8848 27.8219 17.9047 28.0702 17.0029 28.5799C16.1142 29.0765 15.4085 29.7823 14.8988 30.671C14.3891 31.5597 14.1277 32.566 14.1277 33.6769C14.1277 34.8008 14.3891 35.794 14.9118 36.6958C15.4215 37.5845 16.1534 38.2772 17.0944 38.7869C18.0223 39.2835 19.0939 39.5449 20.2963 39.5449C21.4594 39.5449 22.518 39.3096 23.5113 38.8261C24.5045 38.3425 25.2887 37.6368 25.9029 36.6827L23.9687 35.8202C23.5505 36.4475 23.0147 36.9049 22.3874 37.2186C21.76 37.5192 21.0804 37.676 20.3355 37.676C19.3292 37.676 18.4797 37.3754 17.787 36.7481C17.0944 36.1338 16.6892 35.2974 16.5455 34.2388H25.8899C25.8507 32.8927 25.5762 31.7557 25.0796 30.8017ZM16.6239 32.6313C16.8068 31.7296 17.1989 30.9977 17.8262 30.4357C18.4536 29.8868 19.1724 29.6124 19.9957 29.6124C20.8713 29.6124 21.6293 29.8868 22.2959 30.4357C22.9624 30.9846 23.3937 31.7165 23.6028 32.6313H16.6239Z" fill="white"/>
<path d="M32.8688 37.5192C31.8494 37.5192 31.0261 37.1532 30.4118 36.4214C29.7976 35.6895 29.4839 34.7355 29.4839 33.5723C29.4839 32.8927 29.6277 32.2654 29.9021 31.6904C30.1766 31.1153 30.5686 30.6579 31.0783 30.3181C31.588 29.9783 32.15 29.8084 32.7904 29.8084C33.5353 29.8084 34.1888 30.0175 34.7508 30.4488C35.3127 30.8801 35.6395 31.4943 35.7309 32.3046H37.6782V28.1094H35.7309V28.9066C34.8553 28.1748 33.8098 27.8088 32.6074 27.8088C31.575 27.8088 30.6601 28.0572 29.8237 28.5538C28.9873 29.0504 28.3338 29.7431 27.8503 30.6187C27.3798 31.5074 27.1315 32.4876 27.1315 33.5723C27.1315 34.6701 27.3667 35.6764 27.8372 36.5913C28.3077 37.493 28.9742 38.2118 29.8368 38.7346C30.6993 39.2574 31.6795 39.5187 32.7904 39.5187C35.2735 39.5187 37.0248 38.4209 38.0442 36.1992L36.2145 35.3366C35.561 36.7873 34.4502 37.5192 32.8688 37.5192Z" fill="white"/>
<path d="M47.7937 28.6061C46.905 28.0702 45.9117 27.8088 44.8139 27.8088C43.6769 27.8088 42.6706 28.0572 41.7819 28.5668C40.8932 29.0635 40.2005 29.7561 39.6908 30.6448C39.1942 31.5335 38.9459 32.5398 38.9459 33.6638C38.9459 34.7355 39.1942 35.7156 39.6908 36.6174C40.1875 37.5061 40.8932 38.2249 41.7819 38.7346C42.6706 39.2574 43.69 39.5187 44.8008 39.5187C45.8856 39.5187 46.8658 39.2574 47.7545 38.7346C48.6432 38.2118 49.3489 37.5061 49.8586 36.6174C50.3683 35.7287 50.6297 34.7355 50.6297 33.6638C50.6297 32.6052 50.3814 31.6381 49.8717 30.7494C49.375 29.8476 48.6824 29.1288 47.7937 28.6061ZM47.8721 35.5327C47.5715 36.0946 47.1402 36.5651 46.6044 36.8919C46.0555 37.2317 45.4674 37.4016 44.8139 37.4016C44.1605 37.4016 43.5593 37.2317 43.0104 36.8919C42.4615 36.5521 42.0302 36.0946 41.7165 35.5196C41.416 34.9446 41.2461 34.3303 41.2461 33.6638C41.2461 32.9973 41.4029 32.3961 41.7165 31.808C42.0302 31.2329 42.4484 30.7755 42.9973 30.4357C43.5462 30.0959 44.1343 29.926 44.7878 29.926C45.4543 29.926 46.0555 30.0959 46.6044 30.4488C47.1533 30.8017 47.5715 31.2591 47.8721 31.821C48.1727 32.383 48.3295 33.0103 48.3295 33.6638C48.3295 34.3303 48.1727 34.9576 47.8721 35.5327Z" fill="white"/>
<path d="M82.1393 28.1095H78.2055V30.0568H79.9436V37.2448H76.3366V31.7296C76.3366 30.4358 76.1013 29.4817 75.6178 28.8675C75.1473 28.2532 74.4023 27.9526 73.4091 27.9526C72.2067 27.9526 70.926 28.4493 69.5668 29.4425V28.1095H61.3202V29.717C60.7059 29.1158 60.0786 28.6845 59.4513 28.397C58.8109 28.1095 58.1313 27.9657 57.3995 27.9657C56.367 27.9657 55.4391 28.2402 54.6027 28.7629C53.7662 29.2988 53.0997 30.0176 52.6162 30.9193C52.1326 31.8211 51.8974 32.8013 51.8974 33.8337C51.8974 34.8662 52.1326 35.8072 52.59 36.6697C53.0475 37.5323 53.6878 38.2249 54.5243 38.7346C55.3476 39.2574 56.2755 39.5188 57.308 39.5188C58.0398 39.5188 58.7848 39.3489 59.5167 39.0352C60.2485 38.7085 60.8628 38.2642 61.3463 37.7153V38.7477C61.3463 39.8717 61.0327 40.7734 60.4184 41.4661C59.7911 42.1457 58.9416 42.4985 57.8307 42.4985C57.2165 42.4985 56.6545 42.4071 56.1448 42.211C55.6351 42.0281 55.1254 41.7536 54.6157 41.3746L53.2043 42.9298C54.4589 43.9231 55.988 44.4328 57.7654 44.4328C59.6473 44.4328 61.0719 43.91 62.0521 42.8514C63.0322 41.8059 63.5158 40.316 63.5158 38.3687V30.0568H67.4235V37.2448H65.4631V39.179H71.501V37.2448H69.5799V31.3506C70.7953 30.3966 71.8931 29.9261 72.8602 29.9261C73.3176 29.9261 73.6443 30.0698 73.8534 30.3835C74.0626 30.6971 74.154 31.1807 74.154 31.8864V39.2051H83.8513V37.2448H82.1523V28.1095H82.1393ZM60.8758 35.6503C60.5753 36.2254 60.1309 36.6959 59.5689 37.0487C59.007 37.3885 58.3796 37.5584 57.687 37.5584C57.0074 37.5584 56.3931 37.3885 55.8573 37.0487C55.3215 36.7089 54.9163 36.2515 54.6157 35.6765C54.3282 35.1014 54.1845 34.4741 54.1845 33.7815C54.1845 33.1019 54.3413 32.4745 54.6419 31.8995C54.9425 31.3245 55.3737 30.854 55.9096 30.5011C56.4585 30.1613 57.0597 29.9914 57.7262 29.9914C58.4058 29.9914 59.02 30.1744 59.5689 30.5272C60.1178 30.8801 60.5491 31.3637 60.8628 31.9387C61.1764 32.5138 61.3333 33.128 61.3333 33.7684C61.3333 34.4349 61.1764 35.0753 60.8758 35.6503Z" fill="white"/>
<path d="M87.8113 24.437L85.6156 26.4366V28.1094H84.165V30.0567H85.6156V36.3168C85.6156 37.4408 85.8117 38.2249 86.2168 38.6823C86.622 39.1397 87.2885 39.375 88.2033 39.375C88.6215 39.375 89.1704 39.2835 89.85 39.0875V37.114C89.458 37.2447 89.079 37.3101 88.6869 37.3101C88.3602 37.3101 88.138 37.2186 88.0073 37.0356C87.8766 36.8527 87.8113 36.4736 87.8113 35.8594V30.0437H89.85V28.0964H87.8113V24.437Z" fill="white"/>
<path d="M94.9992 28.1094H91.0654V30.0567H92.8036V37.2577H91.0654V39.192H96.6851V37.2447H94.9862L94.9992 28.1094Z" fill="white"/>
<path d="M105.938 28.6061C105.049 28.0702 104.056 27.8088 102.958 27.8088C101.821 27.8088 100.815 28.0572 99.9263 28.5668C99.0376 29.0635 98.345 29.7561 97.8483 30.6448C97.3517 31.5335 97.0903 32.5398 97.0903 33.6638C97.0903 34.7355 97.3386 35.7156 97.8483 36.6174C98.345 37.5061 99.0376 38.2249 99.9394 38.7346C100.828 39.2574 101.834 39.5187 102.958 39.5187C104.043 39.5187 105.036 39.2574 105.912 38.7346C106.801 38.2118 107.506 37.5061 108.016 36.6174C108.539 35.7287 108.787 34.7355 108.787 33.6638C108.787 32.6052 108.539 31.6381 108.029 30.7494C107.533 29.8476 106.84 29.1288 105.938 28.6061ZM106.017 35.5327C105.716 36.0946 105.285 36.5651 104.749 36.8919C104.2 37.2317 103.612 37.4016 102.958 37.4016C102.305 37.4016 101.704 37.2317 101.155 36.8919C100.606 36.5521 100.175 36.0946 99.861 35.5196C99.5473 34.9446 99.3905 34.3303 99.3905 33.6638C99.3905 32.9973 99.5473 32.3961 99.861 31.808C100.175 31.2329 100.593 30.7755 101.142 30.4357C101.691 30.0959 102.279 29.926 102.932 29.926C103.599 29.926 104.2 30.0959 104.749 30.4488C105.298 30.8017 105.716 31.2591 106.017 31.821C106.317 32.383 106.474 33.0103 106.474 33.6638C106.487 34.3303 106.33 34.9576 106.017 35.5327Z" fill="white"/>
<path d="M120.615 37.2448V31.7296C120.615 30.4358 120.379 29.4817 119.896 28.8675C119.425 28.2532 118.68 27.9526 117.687 27.9526C116.485 27.9526 115.204 28.4493 113.845 29.4425V28.1095H109.715V30.0568H111.675V37.2448H109.715V39.179H115.753V37.2448H113.832V31.3375C115.047 30.3835 116.145 29.913 117.112 29.913C117.57 29.913 117.896 30.0568 118.105 30.3704C118.301 30.671 118.406 31.1676 118.406 31.8734V39.1921H122V37.2578L120.615 37.2448Z" fill="white"/>
<path d="M80.9108 21.9016C81.0022 21.784 81.0937 21.6533 81.2113 21.5356C81.7864 20.9345 82.7143 21.1044 83.041 21.8624C83.3155 22.4766 83.1848 23.0517 82.7666 23.5614C82.4921 23.9012 82.1262 24.1364 81.7864 24.3978C81.4858 24.6461 81.1852 24.9075 80.8715 25.1558C80.4533 24.6592 79.8522 24.3063 79.3294 23.8619C78.9896 23.5744 78.7282 23.2216 78.6498 22.7772C78.5322 22.1499 78.7805 21.3919 79.5777 21.1958C79.9698 21.1044 80.2965 21.2351 80.5579 21.5095C80.7016 21.6402 80.8062 21.7709 80.9108 21.9016Z" fill="white"/>
<path d="M80.9108 1.47462C81.1068 1.23938 81.2767 0.964928 81.4989 0.742754C82.649 -0.446534 84.4917 -0.119807 85.1582 1.38314C85.7071 2.61163 85.4457 3.74865 84.6224 4.76803C84.0735 5.44763 83.3416 5.91812 82.6751 6.45395C82.0608 6.95057 81.4727 7.46027 80.8585 7.96996C80.009 6.97671 78.8197 6.27098 77.7873 5.39535C77.1207 4.82031 76.598 4.11458 76.415 3.22588C76.1798 1.97125 76.6633 0.455233 78.2708 0.0631606C79.0419 -0.132876 79.6953 0.141575 80.2312 0.690477C80.4926 0.93879 80.6886 1.22631 80.9108 1.47462Z" fill="white"/>
<path d="M93.7707 15.5501C93.9145 15.3671 94.0452 15.1841 94.202 15.0273C95.0384 14.1517 96.3846 14.4 96.8812 15.4978C97.2863 16.3996 97.0903 17.2229 96.4891 17.9809C96.097 18.4775 95.5481 18.8173 95.0646 19.2225C94.6202 19.5884 94.189 19.9544 93.7315 20.3464C93.1173 19.6146 92.2286 19.1049 91.4837 18.4514C90.987 18.0201 90.608 17.5235 90.4904 16.87C90.3074 15.9552 90.6734 14.8443 91.8496 14.5568C92.4116 14.4261 92.8951 14.6222 93.2872 15.0142C93.4702 15.1449 93.6139 15.354 93.7707 15.5501Z" fill="white"/>
<path d="M11.9844 37.2056L9.16144 31.4552C10.1939 31.1938 11.0042 30.7233 11.5923 30.0306C12.1673 29.338 12.4679 28.4754 12.4679 27.456C12.4679 26.0054 12.0105 24.9598 11.1087 24.2933C10.1939 23.6268 8.70402 23.3 6.65217 23.3H0V25.2866H2.1564V37.2186H0.0392073V39.2051H6.61296V37.2186H4.58725V31.795H6.82207L10.3507 39.2051H13.9317V37.2186H11.9844V37.2056ZM4.57418 29.7954V25.2866H7.04424C8.06363 25.2866 8.7955 25.4564 9.26599 25.7962C9.73648 26.136 9.97172 26.6849 9.97172 27.4168C9.97172 28.2794 9.72341 28.8936 9.21371 29.2465C8.70402 29.5994 7.94601 29.7823 6.90048 29.7823L4.57418 29.7954Z" fill="white"/>
</svg>
