<svg width="40" height="23" viewBox="0 0 40 23" fill="none" xmlns="http://www.w3.org/2000/svg">
<path d="M34.1416 5.85822L30.6055 9.39433C33.3222 12.1082 35 15.8582 35 19.9999H40C40 14.8804 38.0472 9.76377 34.1416 5.85822Z" fill="white"/>
<path d="M34.1417 5.85833C30.2361 1.95278 25.1194 0 20 0V5C24.1417 5 27.8917 6.67778 30.6056 9.39444L34.1417 5.85833Z" fill="white" fill-opacity="0.75"/>
<path d="M5.85834 5.85833L9.39445 9.39444C12.1083 6.67778 15.8583 5 20 5V0C14.8806 0 9.76389 1.95278 5.85834 5.85833Z" fill="white" fill-opacity="0.5"/>
<path d="M5.85833 5.85822C1.95278 9.76377 0 14.8804 0 19.9999H5C5 15.8582 6.67778 12.1082 9.39444 9.39433L5.85833 5.85822Z" fill="white" fill-opacity="0.25"/>
<path d="M21.7667 21.7667C20.7917 22.7417 19.2084 22.7417 18.2306 21.7667C17.2556 20.7917 17.2556 19.2084 18.2306 18.2306C19.2084 17.2556 26.525 11.5251 27.5 12.5001C28.475 13.4751 22.7445 20.7917 21.7667 21.7667Z" fill="white"/>
</svg>
