<svg width="50" height="28" viewBox="0 0 50 28" fill="none" xmlns="http://www.w3.org/2000/svg">
<path opacity="0.25" d="M7.32 7.32001C2.44 12.205 0 18.6 0 25H15C15 22.24 16.12 19.74 17.93 17.93L7.32 7.32001Z" fill="#EC008C"/>
<path opacity="0.5" d="M25 15V0C18.6 0 12.205 2.44 7.32 7.32L17.925 17.925C19.74 16.12 22.24 15 25 15Z" fill="#EC008C"/>
<path opacity="0.75" d="M32.07 17.93L42.675 7.325C37.795 2.44 31.4 0 25 0V15C27.76 15 30.26 16.12 32.07 17.93Z" fill="#EC008C"/>
<path d="M42.68 7.32001L32.07 17.93C33.88 19.74 35 22.24 35 25H50C50 18.6 47.56 12.205 42.68 7.32001Z" fill="#EC008C"/>
<path d="M26.77 26.77C25.795 27.745 24.21 27.745 23.235 26.77C22.26 25.795 22.26 24.21 23.235 23.235C24.21 22.26 36.77 13.235 36.77 13.235C36.77 13.235 27.745 25.79 26.77 26.77Z" fill="#000050"/>
<path d="M33.835 6C32.82 6 32 6.82 32 7.835C32 6.82 31.18 6 30.165 6C29.15 6 28.33 6.82 28.33 7.835C28.335 9.665 32 11.5 32 11.5C32 11.5 35.665 9.665 35.665 7.835C35.665 6.82 34.845 6 33.835 6Z" fill="white"/>
<path d="M19.415 6.625C18.635 6.625 18 7.26 18 8.04C18 7.26 17.365 6.625 16.585 6.625C15.805 6.625 15.17 7.26 15.17 8.04C15.17 9.455 18.005 10.875 18.005 10.875C18.005 10.875 20.84 9.46 20.84 8.04C20.835 7.26 20.2 6.625 19.415 6.625Z" fill="white"/>
<path d="M9.25 17.5C8.7 17.5 8.25 17.95 8.25 18.5C8.25 17.95 7.8 17.5 7.25 17.5C6.7 17.5 6.25 17.95 6.25 18.5C6.25 19.5 8.25 20.5 8.25 20.5C8.25 20.5 10.25 19.5 10.25 18.5C10.25 17.95 9.8 17.5 9.25 17.5Z" fill="white"/>
<path d="M44 15.625C42.755 15.625 41.75 16.63 41.75 17.875C41.75 16.63 40.745 15.625 39.5 15.625C38.255 15.625 37.25 16.63 37.25 17.875C37.25 20.125 41.75 22.375 41.75 22.375C41.75 22.375 46.25 20.125 46.25 17.875C46.25 16.63 45.245 15.625 44 15.625Z" fill="white"/>
</svg>
