<svg width="12" height="12" viewBox="0 0 12 12" fill="none" xmlns="http://www.w3.org/2000/svg">
<path d="M11.56 9.44L8.89333 6.77333C8.78333 6.66333 8.66 6.57333 8.52833 6.505C8.83 5.9 9 5.22 9 4.5C9 2.015 6.985 0 4.5 0C2.015 0 0 2.015 0 4.5C0 6.985 2.015 9 4.5 9C5.22 9 5.9 8.83 6.50333 8.52833C6.57167 8.66 6.66167 8.78333 6.77167 8.89333L9.43833 11.56C9.73167 11.8533 10.1167 12 10.5 12C10.8833 12 11.2683 11.8533 11.56 11.56C12.1467 10.975 12.1467 10.025 11.56 9.44ZM1.5 4.5C1.5 2.845 2.845 1.5 4.5 1.5C6.155 1.5 7.5 2.845 7.5 4.5C7.5 6.155 6.155 7.5 4.5 7.5C2.845 7.5 1.5 6.155 1.5 4.5Z" fill="#808080"/>
</svg>
