<svg width="20" height="20" viewBox="0 0 20 20" fill="none" xmlns="http://www.w3.org/2000/svg">
<path d="M10 1.38889C14.7472 1.38889 18.6111 5.25278 18.6111 10C18.6111 14.7472 14.7472 18.6111 10 18.6111C5.25278 18.6111 1.38889 14.7472 1.38889 10C1.38889 5.25278 5.25278 1.38889 10 1.38889ZM10 0C4.47778 0 0 4.47778 0 10C0 15.5222 4.47778 20 10 20C15.5222 20 20 15.5222 20 10C20 4.47778 15.5222 0 10 0Z" fill="#0086CE"/>
<path d="M14.5945 14.5944C14.3223 14.8639 13.9668 15 13.6112 15C13.2557 15 12.9001 14.8639 12.6279 14.5944L9.01676 10.9833C9.01398 10.9805 9.01121 10.975 9.00843 10.9722C8.94732 10.9111 8.89176 10.8444 8.84454 10.7722C8.81954 10.7361 8.80287 10.6972 8.78343 10.6611C8.76121 10.6194 8.73621 10.5778 8.71676 10.5333C8.69732 10.4861 8.68621 10.4389 8.67232 10.3889C8.66121 10.35 8.64732 10.3139 8.63898 10.275C8.61954 10.1833 8.61121 10.0916 8.61121 9.99997V4.99997C8.61121 4.23331 9.23343 3.61108 10.0001 3.61108C10.7668 3.61108 11.389 4.23331 11.389 4.99997V9.42497L14.5945 12.6305C15.1362 13.1722 15.1362 14.05 14.5945 14.5944Z" fill="#0086CE"/>
</svg>
