<svg width="20" height="20" viewBox="0 0 20 20" fill="none" xmlns="http://www.w3.org/2000/svg">
<path d="M10 1.38889C14.7472 1.38889 18.6111 5.25278 18.6111 10C18.6111 14.7472 14.7472 18.6111 10 18.6111C5.25278 18.6111 1.38889 14.7472 1.38889 10C1.38889 5.25278 5.25278 1.38889 10 1.38889ZM10 0C4.47778 0 0 4.47778 0 10C0 15.5222 4.47778 20 10 20C15.5222 20 20 15.5222 20 10C20 4.47778 15.5222 0 10 0Z" fill="#1C2F76"/>
<path d="M14.5942 14.5942C14.322 14.8636 13.9664 14.9997 13.6108 14.9997C13.2553 14.9997 12.8997 14.8636 12.6275 14.5942L9.0164 10.9831C9.01362 10.9803 9.01084 10.9747 9.00806 10.972C8.94695 10.9108 8.8914 10.8442 8.84417 10.772C8.81917 10.7358 8.80251 10.697 8.78306 10.6608C8.76084 10.6192 8.73584 10.5775 8.7164 10.5331C8.69695 10.4858 8.68584 10.4386 8.67195 10.3886C8.66084 10.3497 8.64695 10.3136 8.63862 10.2747C8.61917 10.1831 8.61084 10.0914 8.61084 9.99973V4.99973C8.61084 4.23306 9.23306 3.61084 9.99973 3.61084C10.7664 3.61084 11.3886 4.23306 11.3886 4.99973V9.42473L14.5942 12.6303C15.1358 13.172 15.1358 14.0497 14.5942 14.5942Z" fill="#1C2F76"/>
</svg>
